<?xml version="1.0" encoding="UTF-8"?>
<svg width="173px" height="173px" viewBox="0 0 173 173" version="1.1" xmlns="http://www.w3.org/2000/svg" xmlns:xlink="http://www.w3.org/1999/xlink">
    <title>icon_autumn</title>
    <g id="Page-1" stroke="none" stroke-width="1" fill="none" fill-rule="evenodd">
        <g id="About" transform="translate(-355.000000, -1560.000000)">
            <g id="icon_autumn" transform="translate(355.000000, 1560.000000)">
                <rect id="Rectangle" x="0" y="0" width="173" height="173" rx="6"></rect>
                <path d="M86.4343,17.8034 C87.7733,17.8034 88.8753,18.8584 88.9323,20.1954 C89.3183,29.1084 92.4293,35.9124 98.1803,40.4204 C102.3603,43.6964 106.4853,44.5054 106.5253,44.5124 C107.2923,44.6504 107.9503,45.1374 108.3063,45.8304 C108.6633,46.5224 108.6763,47.3414 108.3423,48.0454 C106.4593,52.0224 103.4723,61.2244 106.2703,64.2874 C106.7873,64.8524 107.1923,64.9094 107.5483,64.8844 C109.7753,64.7364 113.2633,61.0904 115.0303,58.5484 C115.5053,57.8664 116.3073,57.4834 117.1203,57.4744 C117.9523,57.4874 118.7233,57.9114 119.1773,58.6074 L123.0683,64.5674 L140.8473,57.6444 C141.8753,57.2434 143.0483,57.5644 143.7263,58.4374 C144.4063,59.3084 144.4323,60.5224 143.7923,61.4224 L132.5973,77.1564 L139.6483,85.3414 C140.3523,86.1594 140.4533,87.3344 139.8983,88.2584 C139.3443,89.1834 138.2643,89.6524 137.2083,89.4134 C133.9163,88.6824 124.2883,87.5504 119.3763,91.0454 C117.5493,92.3434 116.5233,94.1684 116.2383,96.6224 C115.8153,100.2614 117.0923,101.2814 117.5113,101.6164 C120.0043,103.6054 126.1903,102.7344 130.8833,101.0844 C131.9893,100.6934 133.2323,101.1244 133.8503,102.1234 C134.4683,103.1224 134.3183,104.4134 133.4743,105.2304 L121.4713,116.8544 L128.3753,122.7304 C129.1293,123.3724 129.4333,124.3984 129.1503,125.3474 C128.8683,126.2964 128.0513,126.9894 127.0693,127.1144 C107.704836,129.569814 94.8165427,126.413984 88.9286638,124.354286 L88.9297,151.8008 C88.9297,153.1818 87.8107,154.3008 86.4297,154.3008 C85.0487,154.3008 83.9297,153.1818 83.9297,151.8008 L83.9301955,124.357851 C79.5642432,125.88415 71.358076,128.009567 59.5233,128.009567 C55.3853,128.009567 50.8053,127.7504 45.7903,127.1144 C44.8073,126.9894 43.9913,126.2964 43.7093,125.3474 C43.4253,124.3984 43.7303,123.3724 44.4843,122.7304 L51.3883,116.8534 L39.3953,105.2294 C38.5523,104.4134 38.3913,103.1204 39.0073,102.1214 C39.6253,101.1234 40.8523,100.6854 41.9613,101.0754 C46.6773,102.7344 52.8603,103.6064 55.3473,101.6174 C55.7673,101.2824 57.0443,100.2624 56.6213,96.6224 C56.3383,94.1654 55.3113,92.3394 53.4833,91.0424 C48.5503,87.5354 38.9383,88.6774 35.6503,89.4134 C34.5983,89.6514 33.5143,89.1834 32.9603,88.2574 C32.4063,87.3334 32.5073,86.1574 33.2123,85.3404 L40.2703,77.1564 L29.0683,61.4234 C28.4273,60.5234 28.4533,59.3094 29.1323,58.4374 C29.8113,57.5644 30.9843,57.2434 32.0113,57.6444 L49.7913,64.5674 L53.6813,58.6074 C54.1353,57.9104 54.9083,57.4854 55.7413,57.4734 C56.5543,57.4604 57.3563,57.8674 57.8303,58.5504 C59.5943,61.0894 63.0853,64.7354 65.3143,64.8844 C65.6753,64.9094 66.0823,64.8524 66.6003,64.2864 C69.3993,61.2154 66.4053,52.0194 64.5163,48.0464 C64.1823,47.3434 64.1953,46.5234 64.5513,45.8314 C64.9073,45.1374 65.5663,44.6504 66.3343,44.5124 C67.0063,44.3864 83.0303,41.1394 83.9373,20.1954 C83.9953,18.8584 85.0953,17.8034 86.4343,17.8034 Z M86.4343,32.6604 C82.3783,42.7304 74.4623,46.9444 70.1633,48.5504 C71.9883,53.2514 74.8023,62.7104 70.2933,67.6584 C68.8403,69.2464 66.9953,70.0134 64.9733,69.8734 C61.4503,69.6334 58.1163,66.6534 55.9723,64.2444 L52.8683,69.0004 C52.2203,69.9914 50.9693,70.3954 49.8673,69.9624 L37.9953,65.3394 L45.4813,75.8534 C46.1493,76.7924 46.0903,78.0644 45.3383,78.9364 L41.2383,83.6904 C45.9093,83.4484 52.0473,83.8864 56.3803,86.9654 C59.3863,89.1024 61.1383,92.1574 61.5883,96.0464 C62.2013,101.3304 60.2303,104.1174 58.4683,105.5244 C55.9523,107.5334 52.4493,107.9424 49.1383,107.7104 L56.8443,115.1784 C57.3503,115.6694 57.6263,116.3494 57.6033,117.0544 C57.5813,117.7584 57.2613,118.4214 56.7253,118.8774 L52.1943,122.7334 C69.5476653,124.007049 80.3293928,120.471058 83.9298724,119.014649 L83.9297,60.8728 C83.9297,59.4918 85.0487,58.3728 86.4297,58.3728 C87.8107,58.3728 88.9297,59.4918 88.9297,60.8728 L88.9286882,119.002841 C92.534971,120.448033 103.389053,123.991334 120.6633,122.7314 L116.1333,118.8774 C115.5973,118.4214 115.2783,117.7584 115.2563,117.0534 C115.2333,116.3494 115.5083,115.6684 116.0153,115.1774 L123.7263,107.7104 C120.4163,107.9474 116.9093,107.5344 114.3913,105.5234 C112.6303,104.1164 110.6583,101.3294 111.2713,96.0464 L111.2713,96.0454 C111.7233,92.1554 113.4783,89.0994 116.4873,86.9634 C120.8223,83.8864 126.9613,83.4504 131.6273,83.6904 L127.5313,78.9354 C126.7803,78.0634 126.7203,76.7924 127.3873,75.8544 L134.8703,65.3374 L122.9923,69.9624 C121.8883,70.3954 120.6373,69.9914 119.9913,69.0004 L116.8863,64.2444 C114.7433,66.6544 111.4093,69.6354 107.8873,69.8734 C105.8583,70.0144 104.0253,69.2444 102.5793,67.6594 C98.0583,62.7114 100.8723,53.2514 102.6973,48.5504 C98.3993,46.9444 90.4893,42.7294 86.4343,32.6604 Z" id="Fill-44" fill="#F15923"></path>
            </g>
        </g>
    </g>
</svg>