<?xml version="1.0" encoding="UTF-8"?>
<svg width="80px" height="70px" viewBox="0 0 80 70" version="1.1" xmlns="http://www.w3.org/2000/svg" xmlns:xlink="http://www.w3.org/1999/xlink">
    <title>quotes</title>
    <g id="Page-1" stroke="none" stroke-width="1" fill="none" fill-rule="evenodd">
        <g id="Services-Details" transform="translate(-151.000000, -1025.000000)" fill="#DCDBDB" fill-rule="nonzero">
            <path d="M187.942675,1094.6 L187.942675,1060.14118 L170.278132,1060.14118 C170.561217,1055.9902 171.948337,1052.39363 174.43949,1049.35147 C176.930644,1046.30931 181.431706,1043.25294 187.942675,1040.18235 L187.942675,1040.18235 L179.95966,1025 C169.372258,1029.66275 161.898797,1035.03627 157.539278,1041.12059 C153.179759,1047.2049 151,1055.50686 151,1066.02647 L151,1066.02647 L151,1094.6 L187.942675,1094.6 Z M231,1094.6 L231,1060.14118 L213.335456,1060.14118 C213.618542,1055.9902 215.005662,1052.39363 217.496815,1049.35147 C219.987969,1046.30931 224.48903,1043.25294 231,1040.18235 L231,1040.18235 L223.016985,1025 C212.429582,1029.66275 204.956122,1035.03627 200.596603,1041.12059 C196.237084,1047.2049 194.057325,1055.50686 194.057325,1066.02647 L194.057325,1066.02647 L194.057325,1094.6 L231,1094.6 Z" id="quotes"></path>
        </g>
    </g>
</svg>