<?xml version="1.0" encoding="UTF-8"?>
<svg width="173px" height="173px" viewBox="0 0 173 173" version="1.1" xmlns="http://www.w3.org/2000/svg" xmlns:xlink="http://www.w3.org/1999/xlink">
    <title>icon_spring</title>
    <g id="Page-1" stroke="none" stroke-width="1" fill="none" fill-rule="evenodd">
        <g id="About" transform="translate(-760.000000, -1561.000000)">
            <g id="icon_spring" transform="translate(760.000000, 1561.000000)">
                <rect id="Rectangle" x="0" y="0" width="173" height="173" rx="6"></rect>
                <path d="M86.4501,23 C91.2341,23 94.8601,24.7 97.2281,28.053 C101.976745,34.7800856 101.095144,47.7937657 94.609404,66.7519609 C103.430036,48.7609761 112.008051,38.9355107 120.1227,37.5364 C124.1667,36.8384 127.9347,38.2014 131.3177,41.5834 C134.6997,44.9664 136.0617,48.7334 135.3637,52.7784 C133.965524,60.8932301 124.138752,69.4714465 106.147168,78.2924792 C125.106051,71.8053518 138.119512,70.9226224 144.8478,75.6724 C148.2008,78.0394 149.9008,81.6654 149.9008,86.4504 C149.9008,91.2344 148.2008,94.8604 144.8478,97.2284 C142.0088,99.2324 138.0468,100.2344 132.9928,100.2344 C126.07462,100.2344 117.104447,98.3571774 106.148295,94.6094169 C124.140049,103.429772 133.96555,112.007821 135.3637,120.1225 C136.0617,124.1675 134.6997,127.9345 131.3177,131.3175 C128.5087,134.1255 125.4347,135.5415 122.1557,135.5415 C121.4867,135.5415 120.8097,135.4825 120.1227,135.3645 C112.008202,133.965415 103.430355,124.140289 94.6097031,106.150172 C101.095675,125.107293 101.977161,138.120633 97.2286,144.8476 C94.8606,148.2006 91.2346,149.9006 86.4496,149.9006 C81.6656,149.9006 78.0396,148.2006 75.6726,144.8476 C70.923788,138.120277 71.8056182,125.105917 78.2919818,106.146635 C69.4715465,124.139584 60.8933301,133.965424 52.7785,135.3636 C52.0925,135.4826 51.4135,135.5416 50.7455,135.5416 C47.4665,135.5416 44.3935,134.1266 41.5835,131.3176 C38.2015,127.9346 36.8395,124.1676 37.5365,120.1226 C38.9355587,112.008253 48.7603455,103.430574 66.7498242,94.6100951 C55.7951704,98.3580202 46.8262816,100.2339 39.908,100.2339 C34.853,100.2339 30.893,99.2319 28.054,97.2279 C24.7,94.8599 23,91.2339 23,86.4499 C23,81.6659 24.7,78.0399 28.054,75.6729 C34.778799,70.9264374 47.7923245,71.8058961 66.7498511,78.2905744 C48.7605789,69.4709581 38.9348932,60.8923474 37.5368,52.778 C36.8398,48.733 38.2008,44.967 41.5838,41.584 C44.9658,38.202 48.7268,36.84 52.7778,37.537 C60.8943199,38.9353011 69.4733763,48.7627694 78.2943401,66.7582523 C71.8062426,47.7965175 70.9239533,34.7807968 75.6731,28.053 C78.0401,24.7 81.6661,23 86.4501,23 Z M89.9306,107.9206 C87.6366,108.3526 85.2646,108.3526 82.9706,107.9206 C77.3296,124.5136 76.1506,136.8546 79.7576,141.9636 C81.1536,143.9406 83.3416,144.9006 86.4496,144.9006 C89.5586,144.9006 91.7476,143.9406 93.1436,141.9636 C96.7506,136.8546 95.5716,124.5126 89.9306,107.9206 Z M68.8075,99.1716 C53.0865,106.9156 43.5265,114.8086 42.4635,120.9726 C42.0525,123.3566 42.9215,125.5836 45.1195,127.7816 C47.3175,129.9806 49.5495,130.8446 51.9285,130.4376 C58.0925,129.3746 65.9855,119.8146 73.7295,104.0936 C72.7665,103.4346 71.8675,102.6886 71.0395,101.8606 C70.2125,101.0336 69.4665,100.1346 68.8075,99.1716 Z M104.0937,99.1715 C103.4347,100.1345 102.6887,101.0335 101.8607,101.8615 C101.0337,102.6885 100.1347,103.4345 99.1717,104.0935 C106.9157,119.8145 114.8087,129.3745 120.9727,130.4375 C123.3477,130.8435 125.5817,129.9805 127.7817,127.7815 C129.9797,125.5835 130.8487,123.3565 130.4377,120.9725 C129.3747,114.8085 119.8147,106.9155 104.0937,99.1715 Z M79.4705568,69.6011819 L79.4754406,69.6535625 C79.52405,70.610375 79.01705,71.54975 78.1118,72.011 C76.7998,72.678 75.6088,73.541 74.5748,74.575 C73.5408,75.609 72.6788,76.8 72.0108,78.112 C71.5698,78.977 70.6918,79.479 69.7798,79.479 L69.6016265,79.4702533 C70.3409967,80.1095146 70.6641171,81.1521005 70.344,82.1369 C69.888,83.5369 69.656,84.9879 69.656,86.4499 C69.656,87.9129 69.888,89.3639 70.344,90.7639 C70.6644033,91.74958 70.3404184,92.7931497 69.5996423,93.4322604 C70.5745384,93.3587637 71.5411504,93.8659535 72.0105,94.7886 C72.6785,96.1016 73.5405,97.2916 74.5755,98.3256 C75.6095,99.3596 76.7995,100.2226 78.1125,100.8906 C79.0341976,101.359467 79.543042,102.324574 79.4729399,103.299219 C80.1106465,102.559731 81.1545317,102.237626 82.1366,102.5576 C84.9376,103.4696 87.9636,103.4696 90.7646,102.5576 C91.7486355,102.237483 92.7910411,102.56002 93.4307058,103.29956 C93.3578088,102.325136 93.8666861,101.359528 94.7887,100.8905 C96.1017,100.2225 97.2917,99.3605 98.3257,98.3255 C99.3597,97.2915 100.2227,96.1015 100.8907,94.7885 C101.359994,93.8659622 102.32585,93.3587832 103.301571,93.4294924 C102.560148,92.7923573 102.236775,91.7488754 102.5578,90.7644 C103.0138,89.3644 103.2448,87.9124 103.2448,86.4504 C103.2448,84.9884 103.0138,83.5364 102.5578,82.1364 C102.236919,81.1523645 102.559859,80.1093752 103.299633,79.4698809 L103.1197,79.4794 L103.1197,79.4794 C102.2067,79.4794 101.3287,78.9774 100.8897,78.1114 C100.2227,76.7994 99.3597,75.6104 98.3257,74.5754 C97.2917,73.5404 96.1017,72.6784 94.7887,72.0104 C93.8677339,71.5419052 93.3589659,70.5779575 93.4280943,69.6036576 C92.9572059,70.1493213 92.2647818,70.468 91.5391,70.468 C91.2821,70.468 91.0211,70.427 90.7641,70.343 C87.9641,69.431 84.9371,69.431 82.1371,70.343 C81.153539,70.6655041 80.1104056,70.3420556 79.4705568,69.6011819 Z M86.4501,72.8113 C93.9711,72.8113 100.0901,78.9293 100.0901,86.4503 C100.0901,93.9703 93.9711,100.0893 86.4501,100.0893 C78.9291,100.0893 72.8111,93.9703 72.8111,86.4503 C72.8111,78.9293 78.9291,72.8113 86.4501,72.8113 Z M107.9208,82.9704 C108.1368,84.1174 108.2448,85.2814 108.2448,86.4504 C108.2448,87.6194 108.1368,88.7834 107.9208,89.9304 C124.5158,95.5724 136.8548,96.7504 141.9638,93.1434 C143.9408,91.7474 144.9008,89.5584 144.9008,86.4504 C144.9008,83.3414 143.9408,81.1534 141.9638,79.7574 C136.8548,76.1504 124.5138,77.3304 107.9208,82.9704 Z M39.784,77.7009 C35.89,77.7009 32.888,78.3809 30.937,79.7579 C28.961,81.1529 28,83.3419 28,86.4499 C28,89.5579 28.961,91.7479 30.937,93.1429 C36.045,96.7499 48.387,95.5699 64.98,89.9299 C64.764,88.7829 64.656,87.6199 64.656,86.4499 C64.656,85.2809 64.764,84.1169 64.98,82.9709 C54.722,79.4829 46.089,77.7009 39.784,77.7009 Z M86.4501,77.8113 C81.6861,77.8113 77.8111,81.6863 77.8111,86.4503 C77.8111,91.2133 81.6861,95.0893 86.4501,95.0893 C91.2141,95.0893 95.0901,91.2133 95.0901,86.4503 C95.0901,81.6863 91.2141,77.8113 86.4501,77.8113 Z M120.9727,42.4634 C114.8087,43.5264 106.9157,53.0864 99.1717,68.8074 C100.1347,69.4664 101.0337,70.2124 101.8607,71.0394 C102.6887,71.8674 103.4347,72.7664 104.0927,73.7294 C119.8147,65.9854 129.3747,58.0924 130.4377,51.9284 C130.8487,49.5444 129.9797,47.3174 127.7817,45.1194 C125.5837,42.9204 123.3547,42.0564 120.9727,42.4634 Z M50.7948,42.365 C48.8318,42.365 46.9658,43.273 45.1188,45.119 C42.9218,47.317 42.0528,49.545 42.4638,51.928 C43.5258,58.093 53.0868,65.985 68.8078,73.729 C69.4668,72.766 70.2128,71.867 71.0398,71.04 C71.8668,70.213 72.7668,69.467 73.7298,68.807 C65.9848,53.087 58.0928,43.526 51.9288,42.464 C51.5478,42.398 51.1698,42.365 50.7948,42.365 Z M86.4501,28 C83.3421,28 81.1531,28.961 79.7581,30.937 C76.1501,36.047 77.3301,48.387 82.9711,64.98 C84.1171,64.764 85.2811,64.656 86.4501,64.656 C87.6201,64.656 88.7831,64.764 89.9301,64.98 C95.5711,48.388 96.7511,36.047 93.1431,30.937 C91.7481,28.961 89.5581,28 86.4501,28 Z" fill="#75C887"></path>
            </g>
        </g>
    </g>
</svg>