<?xml version="1.0" encoding="UTF-8"?>
<svg width="173px" height="173px" viewBox="0 0 173 173" version="1.1" xmlns="http://www.w3.org/2000/svg" xmlns:xlink="http://www.w3.org/1999/xlink">
    <title>icon_summer</title>
    <g id="Page-1" stroke="none" stroke-width="1" fill="none" fill-rule="evenodd">
        <g id="About" transform="translate(-153.000000, -1560.000000)">
            <g id="icon_summer" transform="translate(153.000000, 1560.000000)">
                <rect id="Rectangle" x="0" y="0" width="173" height="173" rx="6"></rect>
                <path d="M122.670439,117.961278 C123.498339,118.188508 124.136259,118.853435 124.326238,119.690648 L129.455677,142.241365 C129.662419,143.149354 129.307605,144.093662 128.554207,144.641249 C128.148173,144.936462 127.667637,145.085465 127.185239,145.085465 C126.773617,145.085465 126.361996,144.977438 125.993213,144.756727 L106.100341,132.891408 C105.360913,132.449986 104.924147,131.636987 104.966985,130.777424 C105.009824,129.91693 105.522954,129.150494 106.302427,128.784505 C108.953755,127.538465 111.504505,126.030738 113.882039,124.303231 C116.212078,122.610181 118.393113,120.694557 120.364613,118.608511 C120.955039,117.983629 121.841608,117.734979 122.670439,117.961278 Z M120.705458,124.767935 C119.401679,125.93668 118.035505,127.041166 116.619974,128.069289 C115.155085,129.133731 113.631527,130.12181 112.062336,131.026073 L123.709737,137.973352 L120.705458,124.767935 Z M86.6553184,44.1220437 C110.360811,44.1220437 129.646494,63.4077263 129.646494,87.1132192 C129.646494,110.818712 110.360811,130.104395 86.6553184,130.104395 C62.9498255,130.104395 43.6641428,110.818712 43.6641428,87.1132192 C43.6641428,63.4077263 62.9498255,44.1220437 86.6553184,44.1220437 Z M86.6553184,48.7783966 C65.5173385,48.7783966 48.3204958,65.9752394 48.3204958,87.1132192 C48.3204958,108.251199 65.5173385,125.448042 86.6553184,125.448042 C107.793298,125.448042 124.990141,108.251199 124.990141,87.1132192 C124.990141,65.9752394 107.793298,48.7783966 86.6553184,48.7783966 Z M136.297815,91.3816049 L153.703262,106.609742 C154.404509,107.223449 154.671784,108.195695 154.384021,109.081334 C154.096258,109.966972 153.307472,110.596511 152.379927,110.680325 L129.311423,112.773822 C129.241578,112.780341 129.170801,112.783134 129.100956,112.783134 C128.320551,112.783134 127.585778,112.390138 127.152738,111.728936 C126.681515,111.008133 126.647058,110.087106 127.061473,109.332777 C128.474211,106.766195 129.651337,104.047816 130.559325,101.251211 C131.44962,98.5114125 132.08754,95.6794186 132.455392,92.834387 C132.567145,91.9822744 133.137082,91.2605397 133.940769,90.9560142 C134.745387,90.65242 135.64965,90.8144611 136.297815,91.3816049 Z M136.353691,97.6173927 C135.984908,99.3290681 135.528585,101.024912 134.988448,102.690024 C134.428755,104.411012 133.776865,106.106855 133.038368,107.759861 L146.545516,106.534309 L136.353691,97.6173927 Z M129.34411,61.4418141 L152.375363,63.5315853 C153.302909,63.616331 154.091695,64.2449386 154.379458,65.1315082 C154.66722,66.0171465 154.399946,66.989393 153.698699,67.6021691 L136.266245,82.8554501 C135.834135,83.233546 135.287479,83.4309753 134.733373,83.4309753 C134.454923,83.4309753 134.174611,83.381618 133.905474,83.2791782 C133.100856,82.9737215 132.529987,82.2482617 132.422891,81.3942865 C132.057833,78.4887223 131.4106,75.5971271 130.502611,72.7995903 C129.613248,70.062586 128.46406,67.3963583 127.090436,64.8754088 C126.677883,64.1210796 126.715134,63.2009843 127.187288,62.4829746 C127.659442,61.7640337 128.495723,61.3663812 129.34411,61.4418141 Z M46.1222316,62.4983406 C46.5943858,63.2163502 46.6325678,64.1355143 46.2218775,64.8898435 C44.8622225,67.3921676 43.7251411,70.036976 42.8441591,72.7506985 C41.9436204,75.5230911 41.3001124,78.3904732 40.9322606,81.2746183 C40.8242332,82.1276621 40.252433,82.8512594 39.4487465,83.1567161 C39.1805406,83.2582246 38.9011594,83.307582 38.6227095,83.307582 C38.0686035,83.307582 37.5219477,83.1092213 37.0898381,82.7320567 L19.798937,67.6026347 C19.0986216,66.9889274 18.8304156,66.0166809 19.1181782,65.1310426 C19.4068721,64.244473 20.194727,63.6158653 21.1222725,63.532051 L43.9672714,61.4590426 C44.8286967,61.384541 45.6510086,61.7812623 46.1222316,62.4983406 Z M133.053361,66.4539124 C133.762989,68.0566291 134.390666,69.6965966 134.931734,71.3607772 C135.490496,73.0826965 135.958925,74.8372103 136.333296,76.608487 L146.540953,67.677602 L133.053361,66.4539124 Z M40.2636083,66.4711409 L26.9566828,67.6780676 L37.0265117,76.48975 C37.3999512,74.7408238 37.863724,73.010523 38.4150362,71.3128168 L38.4150362,71.3118855 C38.9486542,69.6709867 39.5660866,68.0524384 40.2636083,66.4711409 Z M47.516623,29.4616095 L67.2157898,41.2114506 C67.9533561,41.6519416 68.3891908,42.462147 68.3491461,43.3198472 C68.3091015,44.1775474 67.8006278,44.9439831 67.0248794,45.3127662 C64.4536413,46.5383183 61.9792553,48.0097259 59.6715668,49.6869442 C57.3135896,51.3995508 55.1074096,53.3421813 53.1154218,55.4589593 C52.6693432,55.9329761 52.0528421,56.190938 51.4195781,56.190938 C51.2165611,56.190938 51.0107503,56.1648624 50.8086646,56.1099175 C49.9779712,55.8836187 49.3409821,55.2186915 49.1500716,54.3796167 L44.054159,31.9769714 C43.8474169,31.0689826 44.202231,30.1246742 44.9556289,29.5770871 C45.7090268,29.0295 46.7175929,28.984799 47.516623,29.4616095 Z M49.8000985,36.2449845 L52.7680579,49.2930168 C54.096981,48.0972653 55.4892306,46.9694966 56.9336312,45.9199547 C58.3296059,44.905801 59.7814567,43.9596301 61.2752147,43.0898233 L49.8000985,36.2449845 Z M97.6026836,133.321376 C98.140958,133.991891 98.2657482,134.905467 97.9267657,135.696116 L88.8813345,156.814539 C88.5153452,157.671308 87.6725453,158.226345 86.7412747,158.226345 C85.8100041,158.226345 84.9681355,157.671308 84.6021461,156.814539 L75.5706839,135.729642 C75.2326327,134.940855 75.3564917,134.029142 75.8929036,133.358627 C76.4293154,132.688112 77.2907407,132.367755 78.1354031,132.524208 C83.7965971,133.57375 89.7008526,133.563506 95.3536651,132.491614 C96.2011213,132.328641 97.0634779,132.650861 97.6026836,133.321376 Z M92.0104037,137.684379 C88.5134826,138.050368 84.980242,138.055956 81.4814584,137.702073 L86.7412747,149.984601 L92.0104037,137.684379 Z M53.0883218,118.788712 C55.0514402,120.857064 57.2147818,122.754994 59.5224704,124.431281 C61.8795162,126.144818 64.4088471,127.642302 67.0368928,128.882754 C67.815435,129.249675 68.3276338,130.01611 68.369541,130.875673 C68.4105169,131.735236 67.9756135,132.547304 67.2361847,132.987795 L47.5044234,144.756261 C47.1365715,144.976972 46.7240186,145.085 46.312397,145.085 C45.8299989,145.085 45.3503945,144.935996 44.9434293,144.640784 C44.1909626,144.093197 43.8361485,143.148888 44.0419593,142.240899 L49.1294906,119.874574 C49.3194698,119.037361 49.9555276,118.372434 50.7843584,118.145204 C51.6113267,117.918905 52.4978963,118.165692 53.0883218,118.788712 Z M52.7521332,124.944411 L49.7878989,137.972886 L61.279778,131.118735 C59.7320062,130.223784 58.2298668,129.247812 56.7845348,128.19827 C55.3894915,127.185048 54.0419429,126.096392 52.7521332,124.944411 Z M39.4134514,91.0800594 C40.2162066,91.3827224 40.7870755,92.1035258 40.8997592,92.9547071 C41.2704049,95.7829759 41.9064627,98.5907568 42.7865134,101.299823 C43.6889146,104.075009 44.8539341,106.7729 46.25084,109.318994 C46.6633929,110.073323 46.6280046,110.99435 46.1567817,111.714222 C45.7237409,112.374493 44.9889684,112.766558 44.2094949,112.766558 C44.1396496,112.766558 44.068873,112.762833 43.9990277,112.757245 L21.1177093,110.680512 C20.1901638,110.596697 19.4023089,109.967158 19.113615,109.08152 C18.8258524,108.195882 19.0940583,107.223635 19.7943738,106.609928 L37.058268,91.5056501 C37.7055011,90.9394376 38.6097648,90.7764652 39.4134514,91.0800594 Z M37.0079794,97.7367816 L26.9521196,106.534495 L40.279533,107.744215 C39.5522107,106.110767 38.9114965,104.439136 38.3583218,102.739567 C37.825635,101.100531 37.3739688,99.427969 37.0079794,97.7367816 Z M128.5421,29.5772733 C129.295498,30.1248604 129.650312,31.0691688 129.44357,31.9771576 L124.306682,54.5632633 C124.115771,55.4032694 123.476919,56.0681966 122.645295,56.293564 C122.445072,56.348509 122.240192,56.3755159 122.036244,56.3755159 C121.402049,56.3755159 120.784616,56.1156914 120.338538,55.6398121 C118.332581,53.5025461 116.110569,51.5422215 113.733035,49.8156458 C111.403927,48.1235271 108.908122,46.6418756 106.314534,45.4116672 C105.537854,45.042884 105.027518,44.2764483 104.986542,43.4178169 C104.946497,42.5601166 105.381401,41.7480487 106.119898,41.308489 L125.981106,29.4617958 C126.781999,28.984054 127.788702,29.0296862 128.5421,29.5772733 Z M123.697631,36.2451708 L112.066992,43.1822054 C113.583101,44.0622561 115.054508,45.0205335 116.470971,46.0486563 C117.933997,47.1121673 119.343941,48.2557676 120.689627,49.4692132 L123.697631,36.2451708 Z M86.7419266,16 C87.6731972,16 88.5150658,16.5550373 88.8819864,17.4118062 L98.000988,38.704377 C98.3399705,39.495957 98.214249,40.4095335 97.674112,41.0800483 C97.2280334,41.6350856 96.5584499,41.9489237 95.8609282,41.9489237 C95.71565,41.9489237 95.5685092,41.9349547 95.423231,41.9079478 C89.7303739,40.8183613 83.7711734,40.8062547 78.0652785,41.8744221 C77.220616,42.0346006 76.3573282,41.7133123 75.8199851,41.0427975 C75.2826419,40.3722826 75.158783,39.4605687 75.4977655,38.66992 L84.6018668,17.4118062 C84.9687874,16.5550373 85.810656,16 86.7419266,16 Z M86.7419266,24.2417447 L81.4104024,36.69097 C83.1528097,36.512166 84.9073235,36.4218328 86.6571809,36.4218328 C88.4666397,36.4218328 90.2807548,36.5177537 92.0809009,36.7086641 L86.7419266,24.2417447 Z" fill="#FFB039"></path>
            </g>
        </g>
    </g>
</svg>