<?xml version="1.0" encoding="UTF-8"?>
<svg width="173px" height="173px" viewBox="0 0 173 173" version="1.1" xmlns="http://www.w3.org/2000/svg" xmlns:xlink="http://www.w3.org/1999/xlink">
    <title>icon_winter</title>
    <g id="Page-1" stroke="none" stroke-width="1" fill="none" fill-rule="evenodd">
        <g id="About" transform="translate(-558.000000, -1561.000000)">
            <g id="icon_winter" transform="translate(558.000000, 1561.000000)">
                <rect id="Rectangle" x="0" y="0" width="173" height="173" rx="6"></rect>
                <path d="M95.0463834,71.441 C95.2323834,71.545 95.4253834,71.655 95.6193834,71.769 L108.058383,64.593 L110.198383,46.903 C110.276383,46.271 110.422383,45.664 110.626383,45.087 C110.225383,45.553 109.769383,45.98 109.265383,46.358 L95.0463834,57.048 L95.0463834,71.441 Z M64.8493834,64.629 L77.2513834,71.827 C77.4733834,71.687 77.6943834,71.553 77.9133834,71.426 L77.9133834,57.05 L63.6633834,46.358 C63.1283834,45.957 62.6543834,45.504 62.2423834,45.013 C62.4633834,45.619 62.6183834,46.259 62.6983834,46.926 L64.8493834,64.629 Z M38.0793834,86.941 C38.6993834,87.056 39.3123834,87.241 39.9063834,87.496 L56.2933834,94.472 L68.7023834,87.314 C68.6993834,87.189 68.6983834,87.064 68.6983834,86.938 C68.6983834,86.816 68.6993834,86.694 68.7023834,86.572 L56.2933834,79.405 L39.9013834,86.393 C39.3093834,86.645 38.6973834,86.828 38.0793834,86.941 L38.0793834,86.941 Z M104.204383,87.319 L116.613383,94.472 L132.995383,87.494 C133.589383,87.239 134.201383,87.054 134.822383,86.94 C134.207383,86.829 133.596383,86.648 132.997383,86.394 L116.613383,79.405 L104.205383,86.567 C104.207383,86.689 104.208383,86.813 104.208383,86.938 C104.208383,87.067 104.207383,87.194 104.204383,87.319 L104.204383,87.319 Z M95.0463834,116.828 L109.277383,127.531 C109.787383,127.915 110.241383,128.345 110.640383,128.812 C110.432383,128.228 110.285383,127.612 110.208383,126.971 L108.068383,109.293 L95.6713834,102.132 C95.4663834,102.256 95.2583834,102.378 95.0463834,102.495 L95.0463834,116.828 Z M64.8493834,109.294 L62.6983834,126.975 C62.6193834,127.634 62.4663834,128.267 62.2493834,128.867 C62.6593834,128.378 63.1323834,127.927 63.6633834,127.529 L77.9133834,116.827 L77.9133834,102.487 C77.6903834,102.366 77.4743834,102.244 77.2663834,102.122 L64.8493834,109.294 Z M82.9133834,128.207 L82.9133834,142.32 C82.9133834,144.281 84.5143834,145.877 86.4803834,145.877 C88.4463834,145.877 90.0463834,144.281 90.0463834,142.32 L90.0463834,128.195 L102.000383,137.208 C103.556383,138.374 105.783383,138.058 106.960383,136.497 C108.135383,134.929 107.828383,132.698 106.272383,131.526 L90.0463834,119.324 L90.0463834,99.307 L91.5453834,98.652 C92.4553834,98.254 93.3043834,97.762 94.0663834,97.188 L95.3873834,96.194 L112.733383,106.212 L115.173383,126.373 C115.405383,128.317 117.192383,129.717 119.130383,129.473 C121.067383,129.235 122.455383,127.463 122.217383,125.525 L120.426383,110.645 L132.644383,117.711 C133.467383,118.186 134.425383,118.311 135.341383,118.065 C136.254383,117.819 137.017383,117.232 137.486383,116.413 C137.966383,115.584 138.092383,114.626 137.845383,113.709 C137.600383,112.795 137.013383,112.033 136.193383,111.562 L123.972383,104.497 L137.743383,98.623 C138.618383,98.251 139.294383,97.562 139.650383,96.681 C140.004383,95.801 139.995383,94.836 139.624383,93.962 C139.248383,93.089 138.557383,92.415 137.677383,92.061 C136.796383,91.708 135.832383,91.717 134.960383,92.091 L116.277383,100.05 L98.9173834,90.043 L99.1233834,88.395 C99.1813834,87.937 99.2083834,87.461 99.2083834,86.938 C99.2083834,86.415 99.1813834,85.943 99.1243834,85.497 L98.9143834,83.847 L116.277383,73.825 L134.956383,81.794 C136.756383,82.559 138.853383,81.712 139.627383,79.908 C139.995383,79.042 140.004383,78.076 139.650383,77.195 C139.294383,76.315 138.618383,75.626 137.746383,75.254 L123.966383,69.378 L136.189383,62.328 C137.886383,61.346 138.471383,59.167 137.490383,57.47 C136.516383,55.772 134.340383,55.192 132.637383,56.17 L120.426383,63.231 L122.216383,48.358 C122.332383,47.413 122.074383,46.486 121.490383,45.74 C120.905383,44.994 120.065383,44.518 119.122383,44.403 C117.176383,44.173 115.401383,45.564 115.162383,47.507 L112.722383,67.675 L95.3953834,77.67 L94.0803834,76.706 C93.5123834,76.29 92.1363834,75.534 91.4013834,75.156 L90.0473834,74.458 L90.0463834,54.552 L106.262383,42.36 C107.022383,41.791 107.511383,40.961 107.642383,40.022 C107.774383,39.08 107.530383,38.14 106.957383,37.376 C105.784383,35.819 103.557383,35.503 101.995383,36.672 L90.0463834,45.681 L90.0463834,31.556 C90.0463834,29.595 88.4463834,28 86.4803834,28 C84.5143834,28 82.9133834,29.595 82.9133834,31.556 L82.9133834,45.67 L70.9323834,36.671 C69.3633834,35.498 67.1273834,35.812 65.9473834,37.379 C64.7783834,38.946 65.0973834,41.183 66.6633834,42.358 L82.9133834,54.55 L82.9133834,74.529 L81.4663834,75.201 C80.6883834,75.562 79.7203834,76.145 78.8123834,76.801 L77.4963834,77.751 L60.1863834,67.703 L57.7343834,47.526 C57.5003834,45.576 55.7203834,44.169 53.7773834,44.414 C51.8413834,44.652 50.4483834,46.427 50.6813834,48.37 L52.4863834,63.228 L40.2663834,56.177 C39.4413834,55.703 38.4813834,55.575 37.5653834,55.821 C36.6503834,56.066 35.8893834,56.651 35.4183834,57.467 C34.4373834,59.167 35.0183834,61.347 36.7133834,62.33 L48.9443834,69.378 L35.1633834,75.254 C33.3583834,76.021 32.5173834,78.111 33.2833834,79.914 C33.6543834,80.787 34.3433834,81.462 35.2243834,81.818 C36.1043834,82.172 37.0693834,82.166 37.9423834,81.793 L56.6303834,73.825 L73.9553834,83.833 L73.7783834,85.454 C73.7263834,85.934 73.6983834,86.434 73.6983834,86.938 C73.6983834,87.448 73.7253834,87.938 73.7783834,88.438 L73.9523834,90.057 L56.6303834,100.05 L37.9423834,92.093 C37.0663834,91.718 36.1033834,91.708 35.2243834,92.06 C34.3443834,92.414 33.6543834,93.088 33.2833834,93.962 C32.5173834,95.765 33.3593834,97.855 35.1613834,98.622 L48.9393834,104.498 L36.7093834,111.559 C35.8913834,112.031 35.3063834,112.793 35.0613834,113.707 C34.8153834,114.625 34.9423834,115.584 35.4163834,116.406 C35.8913834,117.232 36.6523834,117.819 37.5673834,118.065 C38.4843834,118.31 39.4423834,118.186 40.2653834,117.71 L52.4863834,110.642 L50.6813834,125.521 C50.4483834,127.46 51.8413834,129.235 53.7863834,129.474 C55.7213834,129.711 57.5013834,128.317 57.7333834,126.376 L60.1873834,106.212 L77.5223834,96.199 L78.8413834,97.18 C79.4983834,97.669 80.3813834,98.171 81.4663834,98.675 L82.9133834,99.347 L82.9133834,119.325 L66.6653834,131.528 C65.1003834,132.702 64.7813834,134.934 65.9543834,136.505 C67.1273834,138.063 69.3653834,138.381 70.9333834,137.204 L82.9133834,128.207 Z M86.4803834,150.877 C81.7563834,150.877 77.9133834,147.038 77.9133834,142.32 L77.9133834,138.214 L73.9353834,141.203 C70.1613834,144.031 64.7873834,143.269 61.9533834,139.504 C60.1583834,137.098 59.8163834,134.052 60.7713834,131.427 C58.9753834,133.57 56.1613834,134.795 53.1843834,134.438 C48.5023834,133.862 45.1563834,129.593 45.7163834,124.921 L46.3163834,119.986 L42.7673834,122.039 C40.7833834,123.185 38.4753834,123.489 36.2673834,122.893 C34.0613834,122.299 32.2203834,120.881 31.0833834,118.901 C29.9423834,116.927 29.6393834,114.62 30.2323834,112.411 C30.8233834,110.206 32.2363834,108.366 34.2113834,107.228 L37.7733834,105.171 L33.2023834,103.222 C28.8653834,101.378 26.8373834,96.346 28.6823834,92.006 C29.5763834,89.901 31.2383834,88.272 33.3603834,87.42 C33.9023834,87.203 34.4563834,87.043 35.0183834,86.939 C34.4543834,86.836 33.8983834,86.674 33.3543834,86.455 C31.2343834,85.6 29.5753834,83.972 28.6823834,81.871 C26.8363834,77.53 28.8653834,72.499 33.2053834,70.653 L37.7673834,68.708 L34.2113834,66.659 C30.1283834,64.292 28.7303834,59.049 31.0873834,54.968 C32.2233834,52.997 34.0643834,51.584 36.2693834,50.992 C38.4773834,50.401 40.7843834,50.703 42.7663834,51.847 L46.3163834,53.896 L45.7173834,48.969 C45.1563834,44.294 48.5023834,40.025 53.1753834,39.45 C56.1623834,39.091 58.9763834,40.321 60.7733834,42.468 C59.8113834,39.839 60.1503834,36.788 61.9463834,34.38 C64.7883834,30.609 70.1623834,29.845 73.9333834,32.672 L77.9133834,35.662 L77.9133834,31.556 C77.9133834,26.838 81.7563834,23 86.4803834,23 C91.2033834,23 95.0463834,26.838 95.0463834,31.556 L95.0463834,35.65 L98.9903834,32.676 C102.758383,29.849 108.123383,30.613 110.954383,34.372 C112.328383,36.204 112.909383,38.455 112.594383,40.713 C112.513383,41.293 112.376383,41.853 112.186383,42.391 C113.988383,40.286 116.776383,39.088 119.723383,39.439 C121.997383,39.718 124.020383,40.861 125.427383,42.657 C126.836383,44.456 127.458383,46.695 127.180383,48.962 L126.586383,53.893 L130.141383,51.837 C134.243383,49.482 139.481383,50.893 141.823383,54.975 C144.180383,59.053 142.775383,64.296 138.689383,66.658 L135.137383,68.707 L139.704383,70.654 C141.804383,71.546 143.432383,73.207 144.286383,75.326 C145.141383,77.445 145.119383,79.769 144.225383,81.871 C143.048383,84.617 140.599383,86.437 137.860383,86.936 C138.430383,87.039 138.992383,87.201 139.541383,87.421 C141.660383,88.273 143.322383,89.899 144.223383,92 L144.226383,92.005 C146.070383,96.346 144.042383,101.378 139.702383,103.223 L135.131383,105.172 L138.690383,107.23 C140.662383,108.363 142.080383,110.204 142.673383,112.409 C143.268383,114.618 142.965383,116.925 141.819383,118.908 C140.687383,120.881 138.846383,122.299 136.641383,122.893 C134.430383,123.485 132.123383,123.183 130.142383,122.04 L126.586383,119.983 L127.180383,124.92 C127.755383,129.588 124.414383,133.861 119.733383,134.437 C116.766383,134.786 113.970383,133.585 112.171383,131.468 C113.104383,134.086 112.748383,137.113 110.957383,139.501 C108.123383,143.262 102.758383,144.026 98.9953834,141.204 L95.0463834,138.226 L95.0463834,142.32 C95.0463834,147.038 91.2033834,150.877 86.4803834,150.877 L86.4803834,150.877 Z" fill="#1D9BE1"></path>
            </g>
        </g>
    </g>
</svg>